<?xml version="1.0" encoding="UTF-8"?>
<svg width="210px" height="170px" viewBox="0 0 210 170" version="1.1" xmlns="http://www.w3.org/2000/svg" xmlns:xlink="http://www.w3.org/1999/xlink">
    <!-- Generator: Sketch 42 (36781) - http://www.bohemiancoding.com/sketch -->
    <title>rocky</title>
    <desc>Created with Sketch.</desc>
    <defs></defs>
    <g id="Page-1" stroke="none" stroke-width="1" fill="none" fill-rule="evenodd">
        <g id="Artboard" transform="translate(0.000000, -1.000000)">
            <g id="rocky" transform="translate(2.000000, 3.000000)">
                <polygon id="Shape" fill="#E6E7E8" fill-rule="nonzero" points="31.7 40 57.8 10 127.2 0.6 146.2 31.3 175.4 47.1 204.6 150.5 162 165.5 93.3 157.6 12.8 160.8 0.9 113.4 18.3 103.2 23.8 41.6"></polygon>
                <polygon id="Shape" fill="#A7A9AC" fill-rule="nonzero" points="13.2 160.7 3.4 121.6 18.2 134 53.7 129.7 70.4 159"></polygon>
                <polygon id="Shape" fill="#BCBEC0" fill-rule="nonzero" points="53.7 129.7 168.2 129.7 183.7 75.2 204.9 150.1 154 166.3 85.3 158.4 70.4 159"></polygon>
                <polygon id="Shape" stroke="#000000" stroke-width="4" points="32 39.6 58 9.6 127.5 0.2 146.4 30.9 175.7 46.7 204.9 150.1 162.2 165.1 93.6 157.2 13 160.4 1.2 113 18.6 102.8 24.1 41.2"></polygon>
            </g>
        </g>
    </g>
</svg>